<?xml version="1.0" standalone="no"?><!DOCTYPE svg PUBLIC "-//W3C//DTD SVG 1.1//EN" "http://www.w3.org/Graphics/SVG/1.1/DTD/svg11.dtd"><svg class="icon" width="64px" height="64.00px" viewBox="0 0 1024 1024" version="1.1" xmlns="http://www.w3.org/2000/svg"><path fill="#13227a" d="M512 0c283.554909 0 512 228.445091 512 512s-228.445091 512-512 512S0 795.554909 0 512 228.445091 0 512 0z m0 528.942545c-121.716364 0-222.021818 76.939636-232.727273 171.380364v20.992l0.279273 6.330182C282.856727 763.205818 313.716364 791.272727 350.859636 791.272727h322.280728l6.469818-0.279272c36.352-3.258182 65.117091-33.326545 65.117091-69.678546v-17.501091l-1.210182-8.843636c-15.639273-93.649455-113.477818-166.027636-231.517091-166.027637zM512 232.727273C434.082909 232.727273 372.363636 296.96 372.363636 373.946182 372.363636 451.025455 434.082909 512 512 512s139.636364-60.974545 139.636364-138.053818C651.636364 296.96 589.917091 232.727273 512 232.727273z" /></svg>