<?xml version="1.0" standalone="no"?><!DOCTYPE svg PUBLIC "-//W3C//DTD SVG 1.1//EN" "http://www.w3.org/Graphics/SVG/1.1/DTD/svg11.dtd"><svg class="icon" width="64px" height="64.00px" viewBox="0 0 1024 1024" version="1.1" xmlns="http://www.w3.org/2000/svg"><path fill="#13227a" d="M509.703 700.55c-108.226 0-191.008-82.781-191.008-191.059 0-108.226 82.782-191.008 191.008-191.008 108.277 0 191.059 82.782 191.059 191.008 0 108.278-82.782 191.06-191.06 191.06z m0-318.431A127.731 127.731 0 0 0 382.38 509.49a127.731 127.731 0 0 0 127.322 127.373 127.731 127.731 0 0 0 127.372-127.373A127.731 127.731 0 0 0 509.703 382.17zM637.075 1018.88H382.381c-19.096 0-31.843-12.696-31.843-31.792V866.064c-25.495-12.697-50.94-25.444-70.035-38.192L178.625 891.56a33.584 33.584 0 0 1-44.59-12.748L6.662 655.96C-6.035 636.864 0.314 617.769 19.46 611.42l101.878-63.686V471.3L19.41 407.614C0.262 401.265-6.086 382.17 6.611 363.074l127.372-222.902c6.349-12.697 25.495-19.096 44.54-6.349L280.4 197.51c19.147-12.748 44.59-31.843 70.086-38.243V31.946c0-19.096 12.747-31.844 31.843-31.844h254.694c19.096 0 31.844 12.748 31.844 31.844v120.973c25.443 12.748 50.938 25.495 70.034 38.191l101.878-63.635a33.584 33.584 0 0 1 44.54 12.697l127.372 222.902c12.748 19.096 6.4 38.191-12.747 44.54L898.067 471.3v76.434l101.878 63.635c12.799 6.4 19.147 25.495 12.799 44.54L885.37 878.81c-6.4 12.748-25.495 19.096-44.591 12.748l-101.878-63.687c-19.096 12.748-44.54 31.844-70.034 38.192v121.024c0 19.096-12.748 31.793-31.844 31.793z m-222.85-63.635h191.007V846.968c0-12.696 6.348-25.444 19.096-31.843a405.975 405.975 0 0 0 89.13-50.939 40.598 40.598 0 0 1 38.243 0l95.478 57.338 95.53-165.564-95.53-57.338c-12.696-12.697-19.095-25.444-12.696-38.192 0-19.095 6.348-31.843 6.348-50.939s0-31.843-6.348-50.938a48.635 48.635 0 0 1 12.696-31.844l95.53-57.338-95.53-165.513-95.478 57.338a40.598 40.598 0 0 1-38.243 0 405.975 405.975 0 0 0-89.079-50.99c-12.799-12.696-19.147-25.444-19.147-38.191V63.789H414.224v108.226a35.017 35.017 0 0 1-19.147 31.843 405.975 405.975 0 0 0-89.079 50.939 40.598 40.598 0 0 1-38.242 0l-95.53-50.939-95.478 165.564 95.478 57.339c12.748 6.348 19.096 19.044 12.748 31.792 0 19.095-6.349 31.843-6.349 50.938s0 31.844 6.349 50.94c6.348 12.747 0 25.494-12.748 31.843l-95.478 57.338 95.478 165.513 95.53-57.287a40.598 40.598 0 0 1 38.191 0 405.975 405.975 0 0 0 89.13 50.939 35.017 35.017 0 0 1 19.147 31.843v114.625z" /></svg>