<?xml version="1.0" standalone="no"?><!DOCTYPE svg PUBLIC "-//W3C//DTD SVG 1.1//EN" "http://www.w3.org/Graphics/SVG/1.1/DTD/svg11.dtd"><svg class="icon" width="64px" height="64.00px" viewBox="0 0 1024 1024" version="1.1" xmlns="http://www.w3.org/2000/svg"><path fill="#13227a" d="M950.345473 1023.374604a73.057576 73.057576 0 0 1-73.11443-73.057576V73.11443A73.057576 73.057576 0 1 1 1023.403049 73.057576v877.259452c0 40.309589-32.747987 73.057576-73.057576 73.057576z m-292.45772 0c-40.366443 0-73.11443-32.747987-73.11443-73.057576V292.400866a73.11443 73.11443 0 1 1 146.22886-0.113708V950.260174c0 40.366443-32.747987 73.11443-73.11443 73.11443z m-292.344012 0c-40.366443 0-73.11443-32.747987-73.11443-73.057576V511.687302a73.11443 73.11443 0 1 1 146.22886 0v438.629726A73.171284 73.171284 0 0 1 365.543741 1023.374604z m-292.400866 0C32.776432 1023.374604 0.028444 990.626617 0.028444 950.317028v-219.286436a73.11443 73.11443 0 1 1 146.228861 0v219.286436A73.171284 73.171284 0 0 1 73.142875 1023.374604z"  /></svg>