<?xml version="1.0" standalone="no"?><!DOCTYPE svg PUBLIC "-//W3C//DTD SVG 1.1//EN" "http://www.w3.org/Graphics/SVG/1.1/DTD/svg11.dtd"><svg class="icon" width="64px" height="64.00px" viewBox="0 0 1024 1024" version="1.1" xmlns="http://www.w3.org/2000/svg"><path fill="#13227a" d="M512.56064 710.656c-53.12 0-96.32 41.536-96.32 92.672 0 51.2 43.136 92.672 96.32 92.672 53.248 0 96.32-41.472 96.32-92.672 0-51.2-43.072-92.672-96.32-92.672zM512.04864 496.896a334.72 334.72 0 0 0-232.384 94.4 45.44 45.44 0 0 0 0 64.96c18.304 17.92 47.872 17.92 66.176 0A237.056 237.056 0 0 1 512.04864 588.608c62.4 0 122.24 24.32 166.208 67.648a47.36 47.36 0 0 0 32.896 13.824 47.04 47.04 0 0 0 45.568-27.264 45.44 45.44 0 0 0-9.92-51.52A334.72 334.72 0 0 0 512.04864 496.896z m0-184.32a525.312 525.312 0 0 0-365.248 148.352 45.632 45.632 0 0 0 0 65.408 47.808 47.808 0 0 0 66.688 0c164.928-161.664 432.192-161.664 597.184 0a47.36 47.36 0 0 0 33.344 13.44 47.36 47.36 0 0 0 33.28-13.44 45.632 45.632 0 0 0 0-65.408A525.312 525.312 0 0 0 512.04864 312.576z m498.176 17.984A711.168 711.168 0 0 0 511.98464 128C325.16864 128 145.96864 200.896 13.87264 330.56a45.632 45.632 0 0 0 0 65.408 47.808 47.808 0 0 0 66.624 0c238.336-233.728 624.64-233.728 862.976 0A47.36 47.36 0 0 0 1024.04864 363.328a45.632 45.632 0 0 0-13.888-32.768z" /></svg>