<?xml version="1.0" standalone="no"?><!DOCTYPE svg PUBLIC "-//W3C//DTD SVG 1.1//EN" "http://www.w3.org/Graphics/SVG/1.1/DTD/svg11.dtd"><svg class="icon" width="64px" height="59.31px" viewBox="0 0 1105 1024" version="1.1" xmlns="http://www.w3.org/2000/svg"><path fill="#ffffff" d="M770.6624 555.3664c1.8432 2.2016 3.8912 4.7104 6.0928 7.68l135.6288 240.64a13.7728 13.7728 0 0 1 0 4.352L204.8 807.3728a15.36 15.36 0 0 1 0-3.9936l137.4208-241.0496a64.5632 64.5632 0 0 1 4.7104-7.0144h-30.72L161.536 814.08v45.6192a11.3152 11.3152 0 0 0 2.2016 0l789.1456 0.6656h1.6896v-47.8208l-151.9616-257.1776h-31.9488zM491.52 220.16c9.8816 36.7616 33.3312 70.0416 71.3216 70.0416s61.7472-33.6896 71.68-70.656a29.0304 29.0304 0 0 0 15.36-29.8496A17.92 17.92 0 0 0 640 174.08c-2.56-45.6192-32.256-81.92-76.8-81.92s-74.4448 35.84-76.8 81.1008c-6.912 1.6384-10.24 10.5984-10.9056 19.0976A24.4224 24.4224 0 0 0 491.52 220.16zM1065.472 470.4768c-7.68-47.3088-33.0752-71.68-50.688-79.8208a85.6576 85.6576 0 0 0-37.7856 11.776c-11.8784 6.656-65.792 49.9712-65.792 49.9712s8.8576-38.8096 5.376-34.9696a172.7488 172.7488 0 0 0-29.5936 52.3776c-11.1104 43.1616-16.5888 44.9536-31.4368 124.8256L969.8304 773.12H1070.08c0-152.7296-2.1504-227.6864-4.608-302.4896zM938.752 359.5264c30.1056 7.7312 85.6064-27.4432 96.256-102.4 1.8944-46.08-25.6-84.6336-70.4-86.6816-32.512-1.28-69.0176 28.4672-70.5024 74.752s3.3792 103.8848 44.6464 114.3296zM229.2224 469.76A175.2064 175.2064 0 0 0 199.68 417.4336c-3.4816-3.7376 7.1168 44.1856 7.1168 44.1856S150.8864 409.0368 139.0592 402.3808a84.224 84.224 0 0 0-37.6832-11.7248c-17.6128 8.2944-43.1104 32.1536-50.688 79.7696C48.2304 545.28 46.08 620.1856 46.08 773.12h100.2496L261.12 594.5856c-15.36-79.4624-20.48-81.92-31.6928-124.8256zM177.3568 359.5776c40.96-10.24 46.4896-68.0448 44.6464-114.3296S183.6544 168.96 151.5008 170.4448c-44.5952 1.7408-72.2432 40.3456-70.4512 86.6816 11.0592 74.9568 66.2528 110.08 96.3584 102.4zM452.3008 544.9728c0-7.1168 0-14.336 0.6144-21.4016 2.4576-43.6224 14.6432-106.0352 20.48-108.4416v129.8432h206.0288v-118.272l1.4336 2.1504c8.7552 13.6704 17.92 27.4432 26.3168 38.7584a155.904 155.904 0 0 0 12.544 15.36 78.1824 78.1824 0 0 0 7.3216 7.2192 41.5744 41.5744 0 0 0 5.5296 3.9424 38.4 38.4 0 0 0 20.48 5.7856 42.5984 42.5984 0 0 0 17.0496-3.5328 74.0864 74.0864 0 0 0 9.3696-4.7104 141.1584 141.1584 0 0 0 13.5168-10.24 312.0128 312.0128 0 0 0 23.0912-21.3504 326.5024 326.5024 0 0 0 24.1152-26.88l-48.7936-47.872a184.32 184.32 0 0 1-17.3056 20.1216 427.60704 427.60704 0 0 1-15.7696 15.36c-2.9696-4.352-6.2976-9.0624-9.5744-14.08q-14.5408-21.8624-28.16-44.3392c-4.0448-6.4-7.3728-11.9296-9.6256-15.36l-2.7648-4.5568-0.9216-1.536a33.4848 33.4848 0 0 0-6.144-7.7312c-3.2256-5.12-14.4896-11.6736-48.64-21.3504a231.0656 231.0656 0 0 0-23.6544-6.5536l-52.1216 80.128-43.7248-64.6144-8.6528-15.0528a63.3344 63.3344 0 0 0-19.6608 7.168 465.92 465.92 0 0 0-68.2496 26.6752C428.032 348.16 398.08 389.12 387.9424 519.936c-0.4608 7.3216-0.5632 15.9744-0.4608 25.088h64.8192zM846.3872 371.3024c-21.8112-21.504-48.2816 6.7072-49.7152 8.3456l48.7936 47.872c3.7888-4.2496 22.8864-34.6624 0.9216-56.32z"  /><path fill="#ffffff" d="M790.7328 561.5616h0.1024l-0.1024-0.1536v0.1536zM404.48 558.08l-102.4 199.68h512l-102.4-199.68H404.48z"  /></svg>