<?xml version="1.0" standalone="no"?><!DOCTYPE svg PUBLIC "-//W3C//DTD SVG 1.1//EN" "http://www.w3.org/Graphics/SVG/1.1/DTD/svg11.dtd"><svg class="icon" width="64px" height="64.00px" viewBox="0 0 1024 1024" version="1.1" xmlns="http://www.w3.org/2000/svg"><path fill="#ffffff" d="M513.147 584.708c-15.947 0-39.468-1.747-61.04-10.031l-172.596-66.501h-84.542v103.565c0 31.84 23.684 67.975 52.884 80.663l208.987 90.967c29.2 12.688 76.605 12.743 105.841 0.127l211.263-91.222c29.218-12.615 52.921-48.697 52.921-80.537V508.174h-93.298l-152.954 64.48c-18.386 7.773-42.38 12.051-67.466 12.051z"  /><path fill="#ffffff" d="M46.313 372.991l416.19 160.363c29.728 11.433 77.605 10.686 106.951-1.693l397.458-167.536v247.18l-24.558 81.938h71.015l-25.413-82.794V354.13h-0.71c17.167-11.833 13.162-26.596-12.252-35.681L570.637 174.561c-30.001-10.704-78.479-10.25-108.299 0.946L46.494 331.956c-29.819 11.214-29.891 29.6-0.182 41.033z"  /></svg>