<?xml version="1.0" standalone="no"?><!DOCTYPE svg PUBLIC "-//W3C//DTD SVG 1.1//EN" "http://www.w3.org/Graphics/SVG/1.1/DTD/svg11.dtd"><svg class="icon" width="64px" height="64.00px" viewBox="0 0 1024 1024" version="1.1" xmlns="http://www.w3.org/2000/svg"><path fill="#ffffff" d="M512 0C230.4 0 0 230.4 0 512c0 281.6 230.4 512 512 512 281.6 0 512-230.4 512-512C1024 230.4 793.6 0 512 0zM512 960C265.591467 960 64 758.408533 64 512 64 265.591467 265.591467 64 512 64c246.391467 0 448 201.591467 448 448C960 758.408533 758.408533 960 512 960zM806.417067 285.576533c-38.587733 0-69.973333 31.3856-69.973333 69.956267 0 12.987733 3.515733 25.4464 10.1888 36.386133l-117.128533 139.588267c-18.7392-4.334933-39.1168-0.5632-55.022933 10.171733l-110.08-77.073067c0.341333-2.833067 0.512-5.6832 0.512-8.533333 0-38.570667-31.3856-69.956267-69.956267-69.956267s-69.956267 31.3856-69.956267 69.956267c0 12.1344 3.089067 23.8592 8.994133 34.321067l-93.866667 111.872c-7.236267-2.491733-14.7968-3.7376-22.545067-3.7376-38.570667 0-69.956267 31.3856-69.956267 69.973333 0 38.570667 31.3856 69.956267 69.956267 69.956267 38.570667 0 69.956267-31.3856 69.956267-69.956267 0-10.103467-2.2016-20.104533-6.4-29.2352l96.785067-115.336533c19.985067 5.0176 41.9328 0.699733 58.5216-11.502933l108.202667 75.758933c-0.631467 3.7888-0.938667 7.6288-0.938667 11.485867 0 38.570667 31.3856 69.956267 69.956267 69.956267s69.956267-31.3856 69.956267-69.956267c0-12.561067-3.293867-24.644267-9.5744-35.328l117.76-140.356267c4.795733 1.024 9.6768 1.536 14.592 1.536 38.587733 0 69.973333-31.3856 69.973333-69.956267S844.987733 285.576533 806.417067 285.576533z" /></svg>