<?xml version="1.0" standalone="no"?><!DOCTYPE svg PUBLIC "-//W3C//DTD SVG 1.1//EN" "http://www.w3.org/Graphics/SVG/1.1/DTD/svg11.dtd"><svg class="icon" width="64px" height="64.00px" viewBox="0 0 1024 1024" version="1.1" xmlns="http://www.w3.org/2000/svg"><path fill="#ffffff" d="M204.8 0h614.4a204.8 204.8 0 0 1 204.8 204.8v614.4a204.8 204.8 0 0 1-204.8 204.8H204.8a204.8 204.8 0 0 1-204.8-204.8V204.8a204.8 204.8 0 0 1 204.8-204.8z m532.48 256H286.72C241.5104 256 204.8 292.7616 204.8 338.0224v369.152c0 45.312 36.7104 82.0736 81.92 82.0736h450.56c45.2096 0 81.92-36.7616 81.92-82.0224v-369.152C819.2 292.7104 782.4896 256 737.28 256z m-91.8528 284.4672l-204.8 122.7264a20.8384 20.8384 0 0 1-20.6336 0.256A20.4288 20.4288 0 0 1 409.6 645.632V400.1792a20.48 20.48 0 0 1 31.0272-17.5616l204.8 122.7264a20.48 20.48 0 0 1 0 35.1232z" /></svg>