<?xml version="1.0" standalone="no"?><!DOCTYPE svg PUBLIC "-//W3C//DTD SVG 1.1//EN" "http://www.w3.org/Graphics/SVG/1.1/DTD/svg11.dtd"><svg class="icon" width="64px" height="61.77px" viewBox="0 0 1061 1024" version="1.1" xmlns="http://www.w3.org/2000/svg"><path d="M0 619.457a404.543 404.543 0 1 0 809.086 0 404.543 404.543 0 1 0-809.086 0z" fill="#EDF6FF" /><path d="M662.136 657.383c-204.914 0-409.296 75.852-409.296 75.852V0s205.444 75.852 410.864 75.852S1061.926 0 1061.926 0v733.235s-193.84-75.852-399.79-75.852z m349.222-581.531A1435.762 1435.762 0 0 1 661.82 126.42c-178.454 0-358.413-50.568-358.413-50.568v581.53s181.552-50.567 360.777-50.567a1413.208 1413.208 0 0 1 347.174 50.568V75.852z" fill="#040405" /><path d="M670.025 480.395c-82.666 0-240.198 25.284-240.198 25.284l113.778-176.988 88.494 75.852 113.778-126.42 139.061 214.914s-132.247-12.642-214.913-12.642zM442.469 316.05a37.926 37.926 0 1 1 37.926-37.926 37.926 37.926 0 0 1-37.926 37.926z" fill="#2394FB" /></svg>