<?xml version="1.0" standalone="no"?><!DOCTYPE svg PUBLIC "-//W3C//DTD SVG 1.1//EN" "http://www.w3.org/Graphics/SVG/1.1/DTD/svg11.dtd"><svg class="icon" width="64px" height="64.00px" viewBox="0 0 1024 1024" version="1.1" xmlns="http://www.w3.org/2000/svg"><path fill="#ffffff" d="M599.9638755555555 508.5047466666668L363.4517333333333 745.016888888889c-11.650844444444449 11.65084444444444-11.650844444444457 30.874737777777774 0.5825422222222087 42.52558222222222 11.65084444444444 11.650844444444449 30.874737777777774 12.233386666666675 42.52558222222221 0.5825422222222336L660.5482666666667 534.1366044444444c1.7476266666666669-1.1650844444444441 2.9127111111111113-2.3301688888888883 4.660337777777778-3.495253333333332 5.825422222222224-5.82542222222222 9.320675555555558-13.98101333333333 8.738133333333339-22.136604444444437 2.6645352591003757e-15-8.15559111111111-2.912711111111106-15.728639999999999-8.738133333333323-21.55406222222222-1.1650844444444441-1.1650844444444448-2.91271111111111-2.912711111111112-4.6603377777777775-3.495253333333334l-253.98840888888884-253.98840888888898c-11.65084444444444-11.650844444444449-30.874737777777774-11.650844444444457-42.52558222222222 0.5825422222222087-11.650844444444449 11.65084444444444-12.233386666666675 30.874737777777774-0.5825422222222336 42.52558222222221l236.51214222222217 235.92960000000002z"  /><path fill="#ffffff" d="M514.3301688888888 995.5100444444445C783.4646755555552 995.5100444444445 1001.3354666666667 777.6392533333335 1001.3354666666667 508.50474666666696c8.526512829121202e-14-269.13450666666665-217.87079111111083-487.0052977777778-487.0052977777777-487.00529777777797-269.13450666666665-8.526512829121202e-14-487.0052977777778 217.87079111111083-487.00529777777797 487.0052977777777-8.526512829121202e-14 269.13450666666665 217.87079111111083 487.0052977777778 487.0052977777777 487.00529777777797z m2.8421709430404007e-13-928.5723022222223c243.50264888888887 5.684341886080802e-14 441.56700444444425 197.4818133333335 441.56700444444414 441.5670044444446-5.684341886080802e-14 243.50264888888887-197.4818133333335 441.56700444444425-441.5670044444446 441.56700444444414-243.50264888888887-5.684341886080802e-14-441.56700444444425-197.4818133333335-441.56700444444414-441.5670044444446 5.684341886080802e-14-243.50264888888887 198.06435555555572-441.5670044444443 441.5670044444446-441.56700444444414z"  /></svg>