<?xml version="1.0" standalone="no"?><!DOCTYPE svg PUBLIC "-//W3C//DTD SVG 1.1//EN" "http://www.w3.org/Graphics/SVG/1.1/DTD/svg11.dtd"><svg class="icon" width="64px" height="64.00px" viewBox="0 0 1024 1024" version="1.1" xmlns="http://www.w3.org/2000/svg"><path fill="#ffffff" d="M594.2 274c-8.7-8.7-22.8-8.7-31.6 0L340.5 496.3c-4.3 4.3-6.5 10-6.5 15.7 0 5.8 2.2 11.4 6.6 15.8l222 222.2c8.7 8.7 22.9 8.7 31.6 0 8.8-8.7 8.8-22.9 0-31.6L387.8 512l206.3-206.4c8.8-8.8 8.8-22.9 0.1-31.6z"  /><path fill="#ffffff" d="M512 63C264.4 62.9 63 264.4 63 512s201.4 449 449 449 449-201.4 449-449S759.6 62.9 512 63z m0 853.3C289 916.3 107.6 735 107.6 512S289 107.6 512 107.6c223 0 404.3 181.4 404.3 404.4 0 223-181.3 404.3-404.3 404.3z"  /></svg>